<?xml version="1.0" encoding="utf-8"?>
<!-- Generator: Adobe Illustrator 28.0.0, SVG Export Plug-In . SVG Version: 6.00 Build 0)  -->
<svg version="1.1" id="Layer_1" xmlns="http://www.w3.org/2000/svg" xmlns:xlink="http://www.w3.org/1999/xlink" x="0px" y="0px"
	 viewBox="0 0 848.2 153.31" style="enable-background:new 0 0 848.2 153.31;" xml:space="preserve">
<style type="text/css">
	.st0{fill:#CE2028;}
</style>
<g>
	<path class="st0" d="M209.66,153.31V0h75.32l20.16,20.26v37.96l-16.16,16.85l16.16,15.95v62.3h-39.76V91.65h-15.74v61.67H209.66z
		 M265.37,32.11h-15.74V58.9h15.74V32.11z"/>
	<path class="st0" d="M310.02,153.31L335.54,0h60.39l25.52,153.31h-42.95l-2.77-25.09h-19.99l-2.76,25.09H310.02z M368.07,53.03
		l-1.49-13.02l-0.43-5.55l-0.43-5.33l-0.43,5.33l-0.43,5.55l-1.49,13.02l-6.38,40.32h17.44L368.07,53.03z"/>
	<path class="st0" d="M426.12,153.31V0h75.28l19.99,19.82V84.8l-20.84,20.24H466.1v48.27H426.12z M480.98,34.02H466.1v37h14.89
		V34.02z"/>
	<path class="st0" d="M532.22,153.31V0h39.98v153.31H532.22z"/>
	<path class="st0" d="M584.53,153.31V0h75.49l19.78,20.02v112.85l-20.84,20.44H584.53z M639.82,33.6h-15.1v85.69h15.1V33.6z"/>
	<path class="st0" d="M692.13,153.31V0h39.98v153.31H692.13z"/>
	<path class="st0" d="M736.78,153.31L762.3,0h60.39l25.52,153.31h-42.95l-2.77-25.09H782.5l-2.76,25.09H736.78z M794.83,53.03
		l-1.49-13.02l-0.43-5.55l-0.43-5.33l-0.43,5.33l-0.43,5.55l-1.49,13.02l-6.38,40.32h17.44L794.83,53.03z"/>
</g>
<g>
	<path class="st0" d="M157.76,76.68c0,12.25-9.95,22.15-22.21,22.15c-6.37,0-12.25,1.82-17.23,5.08c-3.64,2.25-6.8,5.24-9.26,8.78
		c-0.27,0.37-0.53,0.75-0.75,1.18c-3.21,4.98-5.03,10.86-5.03,17.23c0,12.25-9.96,22.21-22.21,22.21c-0.38,0-0.75,0-1.13-0.05H27.78
		c-0.37,0.05-0.8,0.05-1.18,0.05c-12.25,0-22.21-9.95-22.21-22.21s9.95-22.21,22.21-22.21h54.48c6.37,0,12.25-1.87,17.23-5.03
		c0.37-0.21,0.75-0.43,1.12-0.7c3.53-2.46,6.64-5.67,8.88-9.36c3.21-4.98,5.03-10.81,5.03-17.12c0-6.37-1.87-12.25-5.03-17.23
		c-2.52-4.07-5.94-7.49-10.01-10.01c-4.98-3.16-10.86-5.03-17.23-5.03c-12.25,0-22.16-9.9-22.21-22.15v-0.05
		C58.87,9.95,68.82,0,81.08,0c12.25,0,22.21,9.95,22.21,22.21v0.05c0,6.31,1.82,12.2,5.03,17.18c0.21,0.43,0.48,0.8,0.75,1.18
		c2.19,3.16,4.93,5.94,8.14,8.13c0.37,0.27,0.75,0.48,1.12,0.75c4.98,3.1,10.86,4.98,17.23,4.98
		C147.81,54.48,157.76,64.38,157.76,76.68z"/>
	<circle class="st0" cx="135.54" cy="131.11" r="22.2"/>
	<circle class="st0" cx="26.61" cy="76.66" r="22.2"/>
	<path class="st0" d="M103.29,76.68c0,12.25-9.96,22.15-22.21,22.15c-12.25,0-22.21-9.9-22.21-22.15c0-6.37-1.87-12.25-5.03-17.23
		c-2.51-4.07-5.94-7.49-10.01-10.01c-4.98-3.16-10.86-5.03-17.23-5.03c-12.25,0-22.21-9.95-22.21-22.21C4.4,9.95,14.35,0,26.6,0
		s22.21,9.95,22.21,22.21v0.05c0,6.31,1.82,12.2,5.03,17.18c0.21,0.43,0.48,0.8,0.75,1.18c2.19,3.16,4.92,5.94,8.13,8.13
		c0.37,0.27,0.75,0.48,1.12,0.75c4.98,3.1,10.86,4.98,17.23,4.98C93.33,54.48,103.29,64.38,103.29,76.68z"/>
	<circle class="st0" cx="135.54" cy="22.22" r="22.2"/>
</g>
</svg>
